<?xml version="1.0" standalone="no"?>
<!DOCTYPE svg PUBLIC "-//W3C//DTD SVG 20010904//EN"
 "http://www.w3.org/TR/2001/REC-SVG-20010904/DTD/svg10.dtd">
<svg version="1.0" xmlns="http://www.w3.org/2000/svg"
 width="16.000000pt" height="16.000000pt" viewBox="0 0 16.000000 16.000000"
 preserveAspectRatio="xMidYMid meet">
<metadata>
Created by potrace 1.11, written by Peter Selinger 2001-2013
</metadata>
<g transform="translate(0.000000,16.000000) scale(0.003855,-0.003855)"
fill="#000000" stroke="none">
<path d="M641 2949 c-98 -19 -210 -66 -300 -127 -118 -80 -245 -244 -292 -377
-88 -251 -47 -539 105 -738 20 -26 36 -50 36 -53 0 -4 -32 -62 -70 -129 -39
-67 -70 -125 -70 -129 0 -3 112 -6 249 -6 197 0 251 3 260 14 9 11 19 11 64
-1 88 -23 293 -19 362 7 17 6 27 5 35 -6 10 -11 56 -14 261 -14 137 0 249 3
249 6 0 4 -31 62 -70 128 -38 67 -70 125 -70 129 0 5 16 29 36 55 20 26 53 83
74 127 217 455 -45 994 -540 1108 -70 17 -246 20 -319 6z m103 -116 l44 -77
29 48 c15 26 36 61 45 77 20 33 32 35 113 14 462 -119 695 -642 474 -1065 -39
-74 -85 -139 -92 -130 -3 4 -74 127 -149 260 -11 19 -62 107 -112 195 -51 88
-139 242 -196 342 -82 144 -107 180 -116 170 -7 -6 -121 -201 -254 -432 -133
-231 -258 -447 -278 -479 l-35 -59 -24 29 c-42 52 -103 182 -124 261 -96 373
112 763 473 887 149 51 148 51 202 -41z m146 -1199 c52 -91 96 -169 98 -174 5
-13 -100 -28 -199 -28 -80 0 -185 12 -197 23 -5 4 192 345 198 345 3 0 48 -75
100 -166z"/>
<path d="M734 1585 c0 -43 4 -65 12 -65 7 0 10 17 9 50 -1 28 1 50 4 50 3 0
24 -22 46 -50 55 -67 65 -65 65 15 0 46 -4 65 -13 65 -8 0 -11 -14 -9 -47 l3
-48 -44 48 c-60 65 -72 63 -73 -18z"/>
<path d="M2408 1789 c-2 -6 -2 -28 0 -49 4 -35 6 -38 25 -32 19 6 39 7 83 3
13 -1 14 -207 2 -227 -5 -7 12 -10 50 -9 44 1 56 4 54 15 -7 27 -6 206 1 216
6 10 89 10 105 0 4 -2 9 18 10 45 1 34 -2 48 -10 43 -15 -9 -255 -11 -290 -2
-15 3 -28 2 -30 -3z"/>
<path d="M3526 1793 c-4 -4 -72 -6 -152 -5 -111 1 -143 -2 -137 -11 10 -16 12
-267 2 -287 -6 -14 12 -16 147 -16 85 0 155 4 155 8 1 4 1 17 1 28 0 42 -2 51
-13 45 -13 -9 -179 -9 -187 -1 -3 4 -7 16 -9 27 -3 19 1 20 67 17 l70 -3 0 41
0 41 -42 -7 c-24 -3 -54 -3 -67 0 -28 6 -37 37 -13 44 28 7 166 1 180 -7 8 -6
12 0 13 20 0 15 2 38 3 51 3 22 -4 28 -18 15z"/>
<path d="M1598 1638 c2 -103 0 -153 -8 -158 -6 -4 15 -6 47 -6 l57 1 -3 58 -2
57 29 0 c24 0 37 -9 61 -42 17 -23 31 -49 31 -57 0 -13 13 -16 59 -17 l59 0
-39 51 c-45 60 -47 71 -16 79 39 9 63 74 46 124 -16 48 -42 56 -189 58 l-135
2 3 -150z m216 76 c18 -7 21 -40 5 -50 -7 -4 -38 -8 -70 -9 l-59 -1 0 33 0 33
54 0 c30 0 61 -3 70 -6z"/>
<path d="M2115 1778 c-76 -28 -119 -84 -117 -151 5 -120 138 -182 300 -140 31
8 58 16 60 18 2 2 -8 21 -23 43 l-26 39 -35 -18 c-40 -20 -124 -19 -150 2 -25
21 -36 49 -29 79 12 53 114 78 179 45 32 -17 32 -17 62 38 9 16 14 30 12 31
-33 22 -185 32 -233 14z"/>
<path d="M2807 1782 c14 -9 14 -292 0 -292 -6 0 -7 -3 -3 -7 4 -5 31 -9 60 -9
l52 -2 -6 55 c-3 29 -4 56 -1 58 2 3 16 5 31 5 20 0 34 -11 58 -44 18 -24 32
-51 32 -59 0 -11 13 -14 55 -13 30 0 55 2 55 4 0 2 -17 26 -39 55 l-39 53 35
22 c19 13 37 32 42 44 13 36 -2 89 -32 112 -24 18 -44 20 -169 23 -79 1 -137
-1 -131 -5z m227 -68 c19 -7 21 -40 4 -50 -6 -4 -38 -8 -70 -9 l-58 -1 0 33 0
33 54 0 c30 0 61 -3 70 -6z"/>
<path d="M3635 1631 l0 -157 50 1 49 0 -2 45 c-3 41 0 48 28 69 17 12 33 21
34 19 43 -62 76 -120 72 -127 -3 -4 23 -8 58 -7 43 1 62 5 58 12 -4 5 -34 50
-67 98 l-59 88 25 22 c13 11 43 37 66 57 l42 35 -75 1 c-41 0 -72 -2 -69 -5 6
-7 -95 -112 -107 -112 -14 0 -9 108 5 113 6 2 -15 4 -48 4 l-60 1 0 -157z"/>
<path d="M30 1275 l0 -75 33 -1 c17 0 49 -1 70 -2 24 -1 37 2 37 11 0 8 -17
12 -54 12 -61 0 -63 3 -61 78 2 38 -2 52 -11 52 -11 0 -14 -19 -14 -75z"/>
<path d="M226 1321 c-2 -3 -4 -31 -5 -63 l0 -56 64 -4 c43 -2 65 1 65 8 0 7
-17 11 -45 9 -24 -1 -49 2 -56 6 -22 13 -3 34 31 34 18 0 35 5 37 10 1 6 -14
10 -34 10 -27 0 -38 4 -38 15 0 11 13 16 45 18 69 5 69 20 1 20 -34 0 -63 -3
-65 -7z"/>
<path d="M525 1305 c-14 -13 -25 -33 -25 -45 0 -31 35 -60 74 -60 50 0 66 9
66 36 0 20 -5 24 -30 24 -16 0 -30 -4 -30 -10 0 -5 9 -10 20 -10 27 0 25 -16
-2 -23 -53 -14 -98 41 -63 77 18 18 70 22 80 6 4 -6 11 -7 17 -4 16 10 -5 24
-46 29 -30 4 -42 0 -61 -20z"/>
<path d="M715 1322 c-3 -3 -5 -32 -5 -64 0 -41 4 -58 13 -58 7 0 13 11 12 27
0 40 37 39 60 -3 10 -19 22 -31 27 -28 5 3 2 16 -6 29 -13 20 -13 25 -1 35 15
13 21 59 8 62 -24 4 -103 4 -108 0z m95 -27 c0 -16 0 -17 -47 -21 -27 -2 -33
1 -33 17 0 16 7 19 40 19 29 0 40 -4 40 -15z"/>
<path d="M929 1315 c0 -5 -11 -32 -24 -60 -24 -52 -24 -74 1 -41 8 11 24 21
36 22 28 2 61 -14 53 -25 -3 -5 2 -12 11 -15 18 -7 17 -3 -19 81 -15 35 -27
51 -39 50 -10 -1 -18 -6 -19 -12z m35 -31 c10 -27 7 -34 -18 -32 -21 2 -22 5
-13 25 12 27 22 29 31 7z"/>
<path d="M1080 1264 c0 -36 4 -64 10 -64 6 0 10 23 10 51 l0 50 41 -48 c60
-69 69 -68 69 11 0 37 -4 66 -10 66 -5 0 -10 -23 -10 -52 l0 -52 -37 44 c-21
24 -37 47 -36 50 1 3 -7 7 -18 7 -17 2 -19 -5 -19 -63z"/>
<path d="M1285 1263 c0 -68 -2 -67 65 -63 43 2 70 25 70 59 -1 46 -24 64 -82
66 l-53 2 0 -64z m99 31 c34 -33 15 -69 -42 -79 l-32 -5 0 50 c0 49 1 50 29
50 16 0 37 -7 45 -16z"/>
<path d="M1585 1265 c0 -41 4 -65 11 -65 7 0 10 17 9 45 -2 25 0 45 5 45 4 0
24 -20 44 -45 51 -62 61 -59 61 20 0 39 -4 65 -11 65 -6 0 -9 -18 -8 -46 3
-54 -8 -54 -51 2 -47 60 -60 56 -60 -21z"/>
<path d="M1815 1318 c-27 -15 -35 -28 -35 -59 0 -29 24 -56 55 -60 35 -5 73
10 81 34 14 41 13 49 -11 73 -26 26 -58 30 -90 12z m72 -20 c21 -28 22 -49 4
-67 -11 -11 -28 -18 -38 -16 -10 2 -23 4 -29 4 -6 1 -16 12 -22 26 -10 21 -9
28 8 45 23 23 63 26 77 8z"/>
<path d="M1990 1258 c0 -43 4 -67 10 -63 6 3 10 17 10 30 0 13 3 26 8 28 14 9
50 -12 57 -32 3 -12 13 -21 21 -21 12 0 12 3 -1 24 -14 21 -14 25 0 36 18 15
20 44 3 57 -7 6 -34 10 -60 10 l-48 1 0 -70z m95 32 c0 -10 -11 -15 -37 -16
-31 -1 -38 2 -38 18 0 16 6 19 38 16 25 -2 37 -8 37 -18z"/>
<path d="M2180 1266 l0 -66 48 0 c55 0 82 20 82 61 0 43 -22 61 -78 66 l-52 4
0 -65z m91 34 c42 -23 9 -89 -44 -86 -19 1 -22 7 -25 49 -3 45 -2 47 23 47 15
0 35 -5 46 -10z"/>
<path d="M2503 1315 c0 -5 -12 -34 -26 -62 -17 -37 -21 -53 -12 -53 7 0 15 9
18 19 6 25 64 23 82 -2 28 -39 29 -12 2 47 -21 44 -36 64 -47 63 -9 0 -17 -6
-17 -12z m25 -63 c-28 -5 -31 1 -16 33 l12 28 12 -29 c11 -26 10 -29 -8 -32z"/>
<path d="M2653 1278 c2 -29 6 -59 11 -66 8 -13 84 -16 104 -4 17 11 23 119 7
119 -8 0 -12 -15 -12 -36 0 -62 -2 -69 -24 -74 -12 -3 -31 -2 -44 3 -19 7 -23
16 -22 56 0 28 -4 49 -11 52 -8 2 -11 -13 -9 -50z"/>
<path d="M2840 1319 c0 -5 11 -9 25 -9 21 0 25 -5 26 -32 1 -18 0 -43 -1 -55
-1 -14 4 -23 12 -23 11 0 13 14 11 55 -2 55 -2 55 27 55 17 0 30 4 30 9 0 4
-29 8 -65 9 -36 0 -65 -4 -65 -9z"/>
<path d="M3029 1327 c-1 -1 -3 -30 -4 -64 -1 -44 2 -63 10 -63 7 0 12 8 12 18
0 34 3 40 21 37 9 -2 20 -4 24 -4 4 -1 10 -10 13 -21 3 -11 16 -25 27 -31 21
-11 21 -11 -1 25 -19 30 -20 36 -7 36 11 0 16 9 16 30 0 25 -4 30 -32 34 -34
4 -77 6 -79 3z m91 -35 c0 -14 -8 -19 -32 -20 -32 -1 -52 14 -42 30 3 4 21 8
40 8 26 0 34 -4 34 -18z"/>
<path d="M3215 1260 l0 -65 62 0 c38 0 63 4 63 11 0 6 -20 10 -47 10 -41 -1
-48 2 -51 20 -3 19 1 21 37 18 29 -2 39 1 35 10 -3 7 -18 10 -39 8 -31 -4 -35
-1 -35 18 0 20 4 22 50 18 34 -2 50 1 50 9 0 8 -21 11 -62 10 l-63 -1 0 -66z"/>
<path d="M3408 1261 c-2 -50 0 -67 9 -64 7 3 13 26 15 51 l3 47 19 -42 c11
-24 23 -43 26 -43 4 0 16 18 29 40 12 22 24 40 25 40 2 0 2 -20 1 -45 -2 -25
1 -48 6 -51 10 -6 11 1 11 66 0 68 -1 70 -17 70 -8 0 -14 -3 -13 -7 1 -5 -7
-25 -18 -47 l-21 -38 -27 46 c-15 25 -31 46 -36 46 -4 0 -10 -31 -12 -69z"/>
<path d="M3635 1264 l-1 -62 63 -4 c39 -2 63 1 63 7 0 6 -21 10 -47 10 -27 0
-51 3 -55 9 -13 19 4 33 38 30 22 -1 34 2 34 11 0 8 -11 11 -31 9 -38 -5 -50
2 -42 21 3 10 20 15 54 15 27 0 49 4 49 8 0 5 -28 9 -63 9 l-62 0 0 -63z"/>
<path d="M3828 1261 c-2 -50 0 -67 9 -64 7 3 11 22 9 49 -1 24 1 44 5 44 4 0
24 -20 45 -45 20 -25 42 -45 48 -45 7 0 11 25 12 63 0 40 -3 64 -10 64 -7 0
-10 -20 -9 -51 l2 -51 -47 53 c-26 28 -50 52 -54 52 -3 0 -8 -31 -10 -69z"/>
<path d="M4010 1315 c0 -6 12 -11 28 -10 26 0 27 -2 27 -52 0 -36 4 -53 12
-53 9 0 12 16 10 55 -2 54 -2 55 25 55 16 0 28 4 28 9 0 6 -29 9 -65 8 -38 -1
-65 -6 -65 -12z"/>
</g>
</svg>
